<svg xmlns="http://www.w3.org/2000/svg" xmlns:xlink="http://www.w3.org/1999/xlink" width="500" zoomAndPan="magnify" viewBox="0 0 375 374.999991" height="500" preserveAspectRatio="xMidYMid meet" version="1.0"><defs><g/></defs><g fill="#000000" fill-opacity="1"><g transform="translate(83.518263, 170.88007)"><g><path d="M 37.234375 -46.328125 C 36.929688 -42.617188 36.78125 -39.304688 36.78125 -36.390625 C 36.78125 -34.335938 36.84375 -32.675781 36.96875 -31.40625 L 35.46875 -31.40625 C 34.59375 -36.332031 33.28125 -39.800781 31.53125 -41.8125 C 29.789062 -43.820312 27.351562 -44.828125 24.21875 -44.828125 L 22.046875 -44.828125 C 20.703125 -44.828125 19.722656 -44.71875 19.109375 -44.5 C 18.492188 -44.28125 18.078125 -43.851562 17.859375 -43.21875 C 17.640625 -42.582031 17.53125 -41.566406 17.53125 -40.171875 L 17.53125 -23.6875 L 19.828125 -23.6875 C 22.140625 -23.6875 23.894531 -24.535156 25.09375 -26.234375 C 26.289062 -27.941406 27.128906 -29.972656 27.609375 -32.328125 L 29.125 -32.328125 C 28.988281 -30.492188 28.921875 -28.441406 28.921875 -26.171875 L 28.921875 -23.03125 C 28.921875 -20.8125 29.050781 -17.710938 29.3125 -13.734375 L 27.8125 -13.734375 C 26.894531 -19.492188 24.234375 -22.375 19.828125 -22.375 L 17.53125 -22.375 L 17.53125 -7.328125 C 17.53125 -5.585938 17.71875 -4.3125 18.09375 -3.5 C 18.46875 -2.695312 19.125 -2.160156 20.0625 -1.890625 C 21 -1.628906 22.492188 -1.476562 24.546875 -1.4375 L 24.546875 0 C 19.171875 -0.132812 15.175781 -0.203125 12.5625 -0.203125 C 10.382812 -0.203125 7.632812 -0.15625 4.3125 -0.0625 L 2.21875 0 L 2.21875 -1.3125 C 3.664062 -1.394531 4.722656 -1.566406 5.390625 -1.828125 C 6.066406 -2.085938 6.523438 -2.585938 6.765625 -3.328125 C 7.003906 -4.078125 7.125 -5.28125 7.125 -6.9375 L 7.125 -39.390625 C 7.125 -41.046875 7.003906 -42.242188 6.765625 -42.984375 C 6.523438 -43.734375 6.066406 -44.238281 5.390625 -44.5 C 4.722656 -44.757812 3.664062 -44.929688 2.21875 -45.015625 L 2.21875 -46.328125 C 6.9375 -46.203125 14.050781 -46.140625 23.5625 -46.140625 C 29.96875 -46.140625 34.523438 -46.203125 37.234375 -46.328125 Z M 37.234375 -46.328125 "/></g></g></g><g fill="#000000" fill-opacity="1"><g transform="translate(118.200033, 170.88007)"><g><path d="M 38.078125 -9.953125 C 38.078125 -5.929688 38.234375 -2.613281 38.546875 0 C 35.578125 -0.132812 30.582031 -0.203125 23.5625 -0.203125 C 14.050781 -0.203125 6.9375 -0.132812 2.21875 0 L 2.21875 -1.3125 C 3.664062 -1.394531 4.722656 -1.566406 5.390625 -1.828125 C 6.066406 -2.085938 6.523438 -2.585938 6.765625 -3.328125 C 7.003906 -4.078125 7.125 -5.28125 7.125 -6.9375 L 7.125 -39.390625 C 7.125 -41.046875 7.003906 -42.242188 6.765625 -42.984375 C 6.523438 -43.734375 6.066406 -44.238281 5.390625 -44.5 C 4.722656 -44.757812 3.664062 -44.929688 2.21875 -45.015625 L 2.21875 -46.328125 C 6.9375 -46.203125 14.050781 -46.140625 23.5625 -46.140625 C 29.96875 -46.140625 34.523438 -46.203125 37.234375 -46.328125 C 36.929688 -42.710938 36.78125 -39.484375 36.78125 -36.640625 C 36.78125 -34.722656 36.84375 -33.238281 36.96875 -32.1875 L 35.46875 -32.1875 C 34.8125 -36.863281 33.628906 -40.140625 31.921875 -42.015625 C 30.222656 -43.890625 27.828125 -44.828125 24.734375 -44.828125 L 22.046875 -44.828125 C 20.703125 -44.828125 19.722656 -44.71875 19.109375 -44.5 C 18.492188 -44.28125 18.078125 -43.851562 17.859375 -43.21875 C 17.640625 -42.582031 17.53125 -41.566406 17.53125 -40.171875 L 17.53125 -23.953125 L 19.625 -23.953125 C 21.9375 -23.953125 23.691406 -24.800781 24.890625 -26.5 C 26.097656 -28.195312 26.941406 -30.226562 27.421875 -32.59375 L 28.921875 -32.59375 C 28.796875 -30.757812 28.734375 -28.707031 28.734375 -26.4375 L 28.734375 -23.296875 C 28.734375 -21.066406 28.863281 -17.96875 29.125 -14 L 27.609375 -14 C 26.691406 -19.757812 24.03125 -22.640625 19.625 -22.640625 L 17.53125 -22.640625 L 17.53125 -6.15625 C 17.53125 -4.757812 17.640625 -3.742188 17.859375 -3.109375 C 18.078125 -2.472656 18.492188 -2.046875 19.109375 -1.828125 C 19.722656 -1.609375 20.703125 -1.5 22.046875 -1.5 L 25.265625 -1.5 C 28.359375 -1.5 30.851562 -2.554688 32.75 -4.671875 C 34.644531 -6.796875 35.988281 -10.382812 36.78125 -15.4375 L 38.28125 -15.4375 C 38.144531 -14 38.078125 -12.171875 38.078125 -9.953125 Z M 38.078125 -9.953125 "/></g></g></g><g fill="#000000" fill-opacity="1"><g transform="translate(155.630182, 170.88007)"><g><path d="M 22.84375 -45.015625 C 21.269531 -44.929688 20.125 -44.757812 19.40625 -44.5 C 18.6875 -44.238281 18.191406 -43.734375 17.921875 -42.984375 C 17.660156 -42.242188 17.53125 -41.046875 17.53125 -39.390625 L 17.53125 -6.15625 C 17.53125 -4.757812 17.640625 -3.742188 17.859375 -3.109375 C 18.078125 -2.472656 18.457031 -2.046875 19 -1.828125 C 19.550781 -1.609375 20.4375 -1.5 21.65625 -1.5 L 24.859375 -1.5 C 27.828125 -1.5 30.390625 -2.828125 32.546875 -5.484375 C 34.710938 -8.148438 36.125 -11.6875 36.78125 -16.09375 L 38.28125 -16.09375 C 38.144531 -14.613281 38.078125 -12.695312 38.078125 -10.34375 C 38.078125 -6.15625 38.234375 -2.707031 38.546875 0 C 35.578125 -0.132812 30.582031 -0.203125 23.5625 -0.203125 C 14.050781 -0.203125 6.9375 -0.132812 2.21875 0 L 2.21875 -1.3125 C 3.664062 -1.394531 4.722656 -1.566406 5.390625 -1.828125 C 6.066406 -2.085938 6.523438 -2.585938 6.765625 -3.328125 C 7.003906 -4.078125 7.125 -5.28125 7.125 -6.9375 L 7.125 -39.390625 C 7.125 -41.046875 7.003906 -42.242188 6.765625 -42.984375 C 6.523438 -43.734375 6.066406 -44.238281 5.390625 -44.5 C 4.722656 -44.757812 3.664062 -44.929688 2.21875 -45.015625 L 2.21875 -46.328125 C 4.445312 -46.203125 7.894531 -46.140625 12.5625 -46.140625 C 17.007812 -46.140625 20.4375 -46.203125 22.84375 -46.328125 Z M 22.84375 -45.015625 "/></g></g></g><g fill="#000000" fill-opacity="1"><g transform="translate(191.555266, 170.88007)"><g><path d="M 22.4375 -45.015625 C 20.957031 -44.929688 19.890625 -44.757812 19.234375 -44.5 C 18.578125 -44.238281 18.128906 -43.734375 17.890625 -42.984375 C 17.648438 -42.242188 17.53125 -41.046875 17.53125 -39.390625 L 17.53125 -6.9375 C 17.53125 -5.28125 17.648438 -4.078125 17.890625 -3.328125 C 18.128906 -2.585938 18.578125 -2.085938 19.234375 -1.828125 C 19.890625 -1.566406 20.957031 -1.394531 22.4375 -1.3125 L 22.4375 0 C 20.082031 -0.132812 16.789062 -0.203125 12.5625 -0.203125 C 7.894531 -0.203125 4.445312 -0.132812 2.21875 0 L 2.21875 -1.3125 C 3.664062 -1.394531 4.722656 -1.566406 5.390625 -1.828125 C 6.066406 -2.085938 6.523438 -2.585938 6.765625 -3.328125 C 7.003906 -4.078125 7.125 -5.28125 7.125 -6.9375 L 7.125 -39.390625 C 7.125 -41.046875 7.003906 -42.242188 6.765625 -42.984375 C 6.523438 -43.734375 6.066406 -44.238281 5.390625 -44.5 C 4.722656 -44.757812 3.664062 -44.929688 2.21875 -45.015625 L 2.21875 -46.328125 C 4.445312 -46.203125 7.894531 -46.140625 12.5625 -46.140625 C 16.789062 -46.140625 20.082031 -46.203125 22.4375 -46.328125 Z M 22.4375 -45.015625 "/></g></g></g><g fill="#000000" fill-opacity="1"><g transform="translate(212.102537, 170.88007)"><g><path d="M 17.53125 -18.71875 L 17.53125 -7.328125 C 17.53125 -5.585938 17.71875 -4.3125 18.09375 -3.5 C 18.46875 -2.695312 19.125 -2.160156 20.0625 -1.890625 C 21 -1.628906 22.492188 -1.476562 24.546875 -1.4375 L 24.546875 0 C 19.171875 -0.132812 15.175781 -0.203125 12.5625 -0.203125 C 10.382812 -0.203125 7.632812 -0.15625 4.3125 -0.0625 L 2.21875 0 L 2.21875 -1.3125 C 3.664062 -1.394531 4.722656 -1.566406 5.390625 -1.828125 C 6.066406 -2.085938 6.523438 -2.585938 6.765625 -3.328125 C 7.003906 -4.078125 7.125 -5.28125 7.125 -6.9375 L 7.125 -39.390625 C 7.125 -41.046875 7.003906 -42.242188 6.765625 -42.984375 C 6.523438 -43.734375 6.066406 -44.238281 5.390625 -44.5 C 4.722656 -44.757812 3.664062 -44.929688 2.21875 -45.015625 L 2.21875 -46.328125 C 4.445312 -46.203125 7.765625 -46.140625 12.171875 -46.140625 L 19.4375 -46.203125 C 20.3125 -46.242188 21.3125 -46.265625 22.4375 -46.265625 C 28.332031 -46.265625 32.828125 -45.097656 35.921875 -42.765625 C 39.023438 -40.429688 40.578125 -37.300781 40.578125 -33.375 C 40.578125 -30.976562 39.960938 -28.675781 38.734375 -26.46875 C 37.515625 -24.269531 35.453125 -22.425781 32.546875 -20.9375 C 29.648438 -19.457031 25.800781 -18.71875 21 -18.71875 Z M 21.59375 -45.015625 C 20.414062 -45.015625 19.550781 -44.863281 19 -44.5625 C 18.457031 -44.257812 18.078125 -43.710938 17.859375 -42.921875 C 17.640625 -42.140625 17.53125 -40.960938 17.53125 -39.390625 L 17.53125 -20.03125 L 20.34375 -20.03125 C 23.882812 -20.03125 26.328125 -21.160156 27.671875 -23.421875 C 29.023438 -25.691406 29.703125 -28.769531 29.703125 -32.65625 C 29.703125 -36.882812 29.082031 -40 27.84375 -42 C 26.601562 -44.007812 24.519531 -45.015625 21.59375 -45.015625 Z M 21.59375 -45.015625 "/></g></g></g><g fill="#000000" fill-opacity="1"><g transform="translate(249.990741, 170.88007)"><g><path d="M 38.078125 -9.953125 C 38.078125 -5.929688 38.234375 -2.613281 38.546875 0 C 35.578125 -0.132812 30.582031 -0.203125 23.5625 -0.203125 C 14.050781 -0.203125 6.9375 -0.132812 2.21875 0 L 2.21875 -1.3125 C 3.664062 -1.394531 4.722656 -1.566406 5.390625 -1.828125 C 6.066406 -2.085938 6.523438 -2.585938 6.765625 -3.328125 C 7.003906 -4.078125 7.125 -5.28125 7.125 -6.9375 L 7.125 -39.390625 C 7.125 -41.046875 7.003906 -42.242188 6.765625 -42.984375 C 6.523438 -43.734375 6.066406 -44.238281 5.390625 -44.5 C 4.722656 -44.757812 3.664062 -44.929688 2.21875 -45.015625 L 2.21875 -46.328125 C 6.9375 -46.203125 14.050781 -46.140625 23.5625 -46.140625 C 29.96875 -46.140625 34.523438 -46.203125 37.234375 -46.328125 C 36.929688 -42.710938 36.78125 -39.484375 36.78125 -36.640625 C 36.78125 -34.722656 36.84375 -33.238281 36.96875 -32.1875 L 35.46875 -32.1875 C 34.8125 -36.863281 33.628906 -40.140625 31.921875 -42.015625 C 30.222656 -43.890625 27.828125 -44.828125 24.734375 -44.828125 L 22.046875 -44.828125 C 20.703125 -44.828125 19.722656 -44.71875 19.109375 -44.5 C 18.492188 -44.28125 18.078125 -43.851562 17.859375 -43.21875 C 17.640625 -42.582031 17.53125 -41.566406 17.53125 -40.171875 L 17.53125 -23.953125 L 19.625 -23.953125 C 21.9375 -23.953125 23.691406 -24.800781 24.890625 -26.5 C 26.097656 -28.195312 26.941406 -30.226562 27.421875 -32.59375 L 28.921875 -32.59375 C 28.796875 -30.757812 28.734375 -28.707031 28.734375 -26.4375 L 28.734375 -23.296875 C 28.734375 -21.066406 28.863281 -17.96875 29.125 -14 L 27.609375 -14 C 26.691406 -19.757812 24.03125 -22.640625 19.625 -22.640625 L 17.53125 -22.640625 L 17.53125 -6.15625 C 17.53125 -4.757812 17.640625 -3.742188 17.859375 -3.109375 C 18.078125 -2.472656 18.492188 -2.046875 19.109375 -1.828125 C 19.722656 -1.609375 20.703125 -1.5 22.046875 -1.5 L 25.265625 -1.5 C 28.359375 -1.5 30.851562 -2.554688 32.75 -4.671875 C 34.644531 -6.796875 35.988281 -10.382812 36.78125 -15.4375 L 38.28125 -15.4375 C 38.144531 -14 38.078125 -12.171875 38.078125 -9.953125 Z M 38.078125 -9.953125 "/></g></g></g><g fill="#000000" fill-opacity="1"><g transform="translate(63.420608, 229.380067)"><g><path d="M 58.5 -45.015625 C 57.019531 -44.929688 55.953125 -44.757812 55.296875 -44.5 C 54.640625 -44.238281 54.191406 -43.734375 53.953125 -42.984375 C 53.710938 -42.242188 53.59375 -41.046875 53.59375 -39.390625 L 53.59375 -6.9375 C 53.59375 -5.28125 53.710938 -4.078125 53.953125 -3.328125 C 54.191406 -2.585938 54.648438 -2.085938 55.328125 -1.828125 C 56.003906 -1.566406 57.0625 -1.394531 58.5 -1.3125 L 58.5 0 C 56.101562 -0.132812 52.679688 -0.203125 48.234375 -0.203125 C 43.554688 -0.203125 40.109375 -0.132812 37.890625 0 L 37.890625 -1.3125 C 39.460938 -1.394531 40.609375 -1.566406 41.328125 -1.828125 C 42.046875 -2.085938 42.535156 -2.585938 42.796875 -3.328125 C 43.054688 -4.078125 43.1875 -5.28125 43.1875 -6.9375 L 43.1875 -41.15625 L 27.421875 0.0625 L 26.375 0.0625 L 8.703125 -42.078125 L 8.703125 -10.734375 C 8.703125 -8.160156 8.832031 -6.269531 9.09375 -5.0625 C 9.351562 -3.863281 9.921875 -2.992188 10.796875 -2.453125 C 11.671875 -1.910156 13.085938 -1.53125 15.046875 -1.3125 L 15.046875 0 C 13.347656 -0.132812 10.992188 -0.203125 7.984375 -0.203125 C 5.585938 -0.203125 3.691406 -0.132812 2.296875 0 L 2.296875 -1.3125 C 3.734375 -1.53125 4.789062 -1.898438 5.46875 -2.421875 C 6.144531 -2.941406 6.601562 -3.769531 6.84375 -4.90625 C 7.082031 -6.039062 7.203125 -7.722656 7.203125 -9.953125 L 7.203125 -39.390625 C 7.203125 -41.046875 7.082031 -42.242188 6.84375 -42.984375 C 6.601562 -43.734375 6.144531 -44.238281 5.46875 -44.5 C 4.789062 -44.757812 3.734375 -44.929688 2.296875 -45.015625 L 2.296875 -46.328125 C 3.691406 -46.203125 5.585938 -46.140625 7.984375 -46.140625 C 11.992188 -46.140625 15.441406 -46.203125 18.328125 -46.328125 L 31.546875 -14.46875 L 43.578125 -46.140625 L 48.234375 -46.140625 C 52.679688 -46.140625 56.101562 -46.203125 58.5 -46.328125 Z M 58.5 -45.015625 "/></g></g></g><g fill="#000000" fill-opacity="1"><g transform="translate(120.023935, 229.380067)"><g><path d="M 38.078125 -9.953125 C 38.078125 -5.929688 38.234375 -2.613281 38.546875 0 C 35.578125 -0.132812 30.582031 -0.203125 23.5625 -0.203125 C 14.050781 -0.203125 6.9375 -0.132812 2.21875 0 L 2.21875 -1.3125 C 3.664062 -1.394531 4.722656 -1.566406 5.390625 -1.828125 C 6.066406 -2.085938 6.523438 -2.585938 6.765625 -3.328125 C 7.003906 -4.078125 7.125 -5.28125 7.125 -6.9375 L 7.125 -39.390625 C 7.125 -41.046875 7.003906 -42.242188 6.765625 -42.984375 C 6.523438 -43.734375 6.066406 -44.238281 5.390625 -44.5 C 4.722656 -44.757812 3.664062 -44.929688 2.21875 -45.015625 L 2.21875 -46.328125 C 6.9375 -46.203125 14.050781 -46.140625 23.5625 -46.140625 C 29.96875 -46.140625 34.523438 -46.203125 37.234375 -46.328125 C 36.929688 -42.710938 36.78125 -39.484375 36.78125 -36.640625 C 36.78125 -34.722656 36.84375 -33.238281 36.96875 -32.1875 L 35.46875 -32.1875 C 34.8125 -36.863281 33.628906 -40.140625 31.921875 -42.015625 C 30.222656 -43.890625 27.828125 -44.828125 24.734375 -44.828125 L 22.046875 -44.828125 C 20.703125 -44.828125 19.722656 -44.71875 19.109375 -44.5 C 18.492188 -44.28125 18.078125 -43.851562 17.859375 -43.21875 C 17.640625 -42.582031 17.53125 -41.566406 17.53125 -40.171875 L 17.53125 -23.953125 L 19.625 -23.953125 C 21.9375 -23.953125 23.691406 -24.800781 24.890625 -26.5 C 26.097656 -28.195312 26.941406 -30.226562 27.421875 -32.59375 L 28.921875 -32.59375 C 28.796875 -30.757812 28.734375 -28.707031 28.734375 -26.4375 L 28.734375 -23.296875 C 28.734375 -21.066406 28.863281 -17.96875 29.125 -14 L 27.609375 -14 C 26.691406 -19.757812 24.03125 -22.640625 19.625 -22.640625 L 17.53125 -22.640625 L 17.53125 -6.15625 C 17.53125 -4.757812 17.640625 -3.742188 17.859375 -3.109375 C 18.078125 -2.472656 18.492188 -2.046875 19.109375 -1.828125 C 19.722656 -1.609375 20.703125 -1.5 22.046875 -1.5 L 25.265625 -1.5 C 28.359375 -1.5 30.851562 -2.554688 32.75 -4.671875 C 34.644531 -6.796875 35.988281 -10.382812 36.78125 -15.4375 L 38.28125 -15.4375 C 38.144531 -14 38.078125 -12.171875 38.078125 -9.953125 Z M 38.078125 -9.953125 "/></g></g></g><g fill="#000000" fill-opacity="1"><g transform="translate(157.454083, 229.380067)"><g><path d="M 22.4375 -46.328125 C 30.945312 -46.328125 37.316406 -44.394531 41.546875 -40.53125 C 45.785156 -36.675781 47.90625 -31.0625 47.90625 -23.6875 C 47.90625 -18.9375 46.867188 -14.78125 44.796875 -11.21875 C 42.722656 -7.664062 39.734375 -4.90625 35.828125 -2.9375 C 31.921875 -0.976562 27.265625 0 21.859375 0 L 17.796875 -0.0625 C 15.265625 -0.15625 13.429688 -0.203125 12.296875 -0.203125 C 7.804688 -0.203125 4.445312 -0.132812 2.21875 0 L 2.21875 -1.3125 C 3.664062 -1.394531 4.722656 -1.566406 5.390625 -1.828125 C 6.066406 -2.085938 6.523438 -2.585938 6.765625 -3.328125 C 7.003906 -4.078125 7.125 -5.28125 7.125 -6.9375 L 7.125 -39.390625 C 7.125 -41.046875 7.003906 -42.242188 6.765625 -42.984375 C 6.523438 -43.734375 6.066406 -44.238281 5.390625 -44.5 C 4.722656 -44.757812 3.664062 -44.929688 2.21875 -45.015625 L 2.21875 -46.328125 C 4.050781 -46.203125 6.691406 -46.140625 10.140625 -46.140625 L 12.171875 -46.140625 L 14.78125 -46.203125 C 18.363281 -46.285156 20.914062 -46.328125 22.4375 -46.328125 Z M 22.375 -45.15625 C 21.019531 -45.15625 20.003906 -45 19.328125 -44.6875 C 18.660156 -44.382812 18.191406 -43.835938 17.921875 -43.046875 C 17.660156 -42.265625 17.53125 -41.09375 17.53125 -39.53125 L 17.53125 -6.8125 C 17.53125 -5.238281 17.660156 -4.054688 17.921875 -3.265625 C 18.191406 -2.484375 18.660156 -1.9375 19.328125 -1.625 C 20.003906 -1.320312 21.039062 -1.171875 22.4375 -1.171875 C 27.71875 -1.171875 31.46875 -3.015625 33.6875 -6.703125 C 35.914062 -10.390625 37.03125 -15.960938 37.03125 -23.421875 C 37.03125 -30.878906 35.882812 -36.363281 33.59375 -39.875 C 31.3125 -43.394531 27.570312 -45.15625 22.375 -45.15625 Z M 22.375 -45.15625 "/></g></g></g><g fill="#000000" fill-opacity="1"><g transform="translate(204.176359, 229.380067)"><g><path d="M 22.4375 -45.015625 C 20.957031 -44.929688 19.890625 -44.757812 19.234375 -44.5 C 18.578125 -44.238281 18.128906 -43.734375 17.890625 -42.984375 C 17.648438 -42.242188 17.53125 -41.046875 17.53125 -39.390625 L 17.53125 -6.9375 C 17.53125 -5.28125 17.648438 -4.078125 17.890625 -3.328125 C 18.128906 -2.585938 18.578125 -2.085938 19.234375 -1.828125 C 19.890625 -1.566406 20.957031 -1.394531 22.4375 -1.3125 L 22.4375 0 C 20.082031 -0.132812 16.789062 -0.203125 12.5625 -0.203125 C 7.894531 -0.203125 4.445312 -0.132812 2.21875 0 L 2.21875 -1.3125 C 3.664062 -1.394531 4.722656 -1.566406 5.390625 -1.828125 C 6.066406 -2.085938 6.523438 -2.585938 6.765625 -3.328125 C 7.003906 -4.078125 7.125 -5.28125 7.125 -6.9375 L 7.125 -39.390625 C 7.125 -41.046875 7.003906 -42.242188 6.765625 -42.984375 C 6.523438 -43.734375 6.066406 -44.238281 5.390625 -44.5 C 4.722656 -44.757812 3.664062 -44.929688 2.21875 -45.015625 L 2.21875 -46.328125 C 4.445312 -46.203125 7.894531 -46.140625 12.5625 -46.140625 C 16.789062 -46.140625 20.082031 -46.203125 22.4375 -46.328125 Z M 22.4375 -45.015625 "/></g></g></g><g fill="#000000" fill-opacity="1"><g transform="translate(224.723629, 229.380067)"><g><path d="M 45.34375 -45.015625 C 43.90625 -44.796875 42.847656 -44.425781 42.171875 -43.90625 C 41.492188 -43.382812 41.035156 -42.554688 40.796875 -41.421875 C 40.554688 -40.285156 40.4375 -38.609375 40.4375 -36.390625 L 40.4375 0.125 L 38.875 0.0625 L 37.109375 0.125 L 8.703125 -35.859375 L 8.703125 -10.734375 C 8.703125 -8.160156 8.832031 -6.269531 9.09375 -5.0625 C 9.351562 -3.863281 9.921875 -2.992188 10.796875 -2.453125 C 11.671875 -1.910156 13.085938 -1.53125 15.046875 -1.3125 L 15.046875 0 C 13.347656 -0.132812 10.992188 -0.203125 7.984375 -0.203125 C 5.585938 -0.203125 3.691406 -0.132812 2.296875 0 L 2.296875 -1.3125 C 3.734375 -1.53125 4.789062 -1.898438 5.46875 -2.421875 C 6.144531 -2.941406 6.601562 -3.769531 6.84375 -4.90625 C 7.082031 -6.039062 7.203125 -7.722656 7.203125 -9.953125 L 7.203125 -39.390625 C 7.203125 -41.046875 7.082031 -42.242188 6.84375 -42.984375 C 6.601562 -43.734375 6.144531 -44.238281 5.46875 -44.5 C 4.789062 -44.757812 3.734375 -44.929688 2.296875 -45.015625 L 2.296875 -46.328125 C 3.691406 -46.203125 5.585938 -46.140625 7.984375 -46.140625 C 10.160156 -46.140625 12.035156 -46.203125 13.609375 -46.328125 L 38.9375 -15.109375 L 38.9375 -35.59375 C 38.9375 -38.164062 38.804688 -40.050781 38.546875 -41.25 C 38.285156 -42.457031 37.71875 -43.332031 36.84375 -43.875 C 35.96875 -44.414062 34.550781 -44.796875 32.59375 -45.015625 L 32.59375 -46.328125 C 34.289062 -46.203125 36.644531 -46.140625 39.65625 -46.140625 C 42.09375 -46.140625 43.988281 -46.203125 45.34375 -46.328125 Z M 45.34375 -45.015625 "/></g></g></g><g fill="#000000" fill-opacity="1"><g transform="translate(267.912278, 229.380067)"><g><path d="M 39.984375 -5.5 C 40.546875 -4.0625 41.195312 -3.015625 41.9375 -2.359375 C 42.6875 -1.703125 43.410156 -1.351562 44.109375 -1.3125 L 44.109375 0 C 41.484375 -0.132812 38.164062 -0.203125 34.15625 -0.203125 C 29.707031 -0.203125 26.394531 -0.132812 24.21875 0 L 24.21875 -1.3125 C 25.875 -1.394531 27.050781 -1.597656 27.75 -1.921875 C 28.445312 -2.253906 28.796875 -2.835938 28.796875 -3.671875 C 28.796875 -4.453125 28.53125 -5.5 28 -6.8125 L 24.078125 -17.53125 L 9.8125 -17.53125 L 8.109375 -13.015625 C 6.890625 -9.878906 6.28125 -7.460938 6.28125 -5.765625 C 6.28125 -4.148438 6.769531 -3.023438 7.75 -2.390625 C 8.738281 -1.753906 10.191406 -1.394531 12.109375 -1.3125 L 12.109375 0 C 9.140625 -0.132812 6.429688 -0.203125 3.984375 -0.203125 C 1.984375 -0.203125 0.328125 -0.132812 -0.984375 0 L -0.984375 -1.3125 C 1.148438 -1.695312 3.023438 -3.988281 4.640625 -8.1875 L 19.5625 -46.453125 C 20.039062 -46.410156 20.804688 -46.390625 21.859375 -46.390625 C 22.898438 -46.390625 23.640625 -46.410156 24.078125 -46.453125 Z M 23.625 -18.84375 L 17.140625 -36.515625 L 10.34375 -18.84375 Z M 23.625 -18.84375 "/></g></g></g></svg>